<?xml version="1.0" ?><svg height="48" id="svg6485" version="1.1" viewBox="0 0 48 48" width="48" xmlns="http://www.w3.org/2000/svg" xmlns:cc="http://creativecommons.org/ns#" xmlns:dc="http://purl.org/dc/elements/1.1/" xmlns:inkscape="http://www.inkscape.org/namespaces/inkscape" xmlns:rdf="http://www.w3.org/1999/02/22-rdf-syntax-ns#" xmlns:sodipodi="http://sodipodi.sourceforge.net/DTD/sodipodi-0.dtd" xmlns:svg="http://www.w3.org/2000/svg"><defs id="defs6487"/><g id="layer1" transform="translate(0,-1004.3622)"><text id="text4366" style="font-style:normal;font-weight:normal;font-size:11.25px;line-height:125%;font-family:Sans;letter-spacing:0px;word-spacing:0px;fill:#000000;fill-opacity:1;stroke:none;stroke-width:1px;stroke-linecap:butt;stroke-linejoin:miter;stroke-opacity:1" x="12" xml:space="preserve" y="1036.3622"><tspan id="tspan4368" x="12" y="1036.3622"/></text><g id="text4981" style="font-style:normal;font-variant:normal;font-weight:normal;font-stretch:normal;font-size:12.37186241px;line-height:125%;font-family:'Roboto Condensed';-inkscape-font-specification:'Roboto Condensed, ';letter-spacing:0px;word-spacing:0px;fill:#000000;fill-opacity:1;stroke:none;stroke-width:1px;stroke-linecap:butt;stroke-linejoin:miter;stroke-opacity:1" transform="scale(1.1477838,0.87124422)"/><g id="g6817"><g id="g5959" transform="translate(587.02794,259.17156)"><path d="m -563.02794,745.19064 c -13.25187,0 -24,10.74825 -24,24 0,13.2519 10.74813,24 24,24 13.25187,0 24,-10.7481 24,-24 0,-13.25175 -10.74813,-24 -24,-24 z m 0,1.5 c 12.42359,0 22.5,10.07655 22.5,22.5 0,12.4236 -10.07641,22.5 -22.5,22.5 -12.42359,0 -22.5,-10.0764 -22.5,-22.5 0,-12.42345 10.07641,-22.5 22.5,-22.5 z" id="path5817" style="color:#000000;font-style:normal;font-variant:normal;font-weight:normal;font-stretch:normal;font-size:medium;line-height:normal;font-family:sans-serif;text-indent:0;text-align:start;text-decoration:none;text-decoration-line:none;text-decoration-style:solid;text-decoration-color:#000000;letter-spacing:normal;word-spacing:normal;text-transform:none;direction:ltr;block-progression:tb;writing-mode:lr-tb;baseline-shift:baseline;text-anchor:start;white-space:normal;clip-rule:nonzero;display:inline;overflow:visible;visibility:visible;opacity:1;isolation:auto;mix-blend-mode:normal;color-interpolation:sRGB;color-interpolation-filters:linearRGB;solid-color:#000000;solid-opacity:1;fill:#ce4b85;fill-opacity:1;fill-rule:nonzero;stroke:none;stroke-width:0.99999994;stroke-linecap:round;stroke-linejoin:round;stroke-miterlimit:4;stroke-dasharray:none;stroke-dashoffset:0;stroke-opacity:1;color-rendering:auto;image-rendering:auto;shape-rendering:auto;text-rendering:auto;enable-background:accumulate"/><path d="m -563.02794,749.44059 c -10.90519,0 -19.75,8.84505 -19.75,19.75005 0,10.90515 8.84481,19.75005 19.75,19.75005 10.90519,0 19.75,-8.8449 19.75,-19.75005 0,-10.905 -8.84481,-19.75005 -19.75,-19.75005 z" id="path5819" style="color:#000000;font-style:normal;font-variant:normal;font-weight:normal;font-stretch:normal;font-size:medium;line-height:normal;font-family:sans-serif;text-indent:0;text-align:start;text-decoration:none;text-decoration-line:none;text-decoration-style:solid;text-decoration-color:#000000;letter-spacing:normal;word-spacing:normal;text-transform:none;direction:ltr;block-progression:tb;writing-mode:lr-tb;baseline-shift:baseline;text-anchor:start;white-space:normal;clip-rule:nonzero;display:inline;overflow:visible;visibility:visible;opacity:1;isolation:auto;mix-blend-mode:normal;color-interpolation:sRGB;color-interpolation-filters:linearRGB;solid-color:#000000;solid-opacity:1;fill:#ce4b85;fill-opacity:1;fill-rule:nonzero;stroke:none;stroke-width:0.99999994;stroke-linecap:round;stroke-linejoin:round;stroke-miterlimit:4;stroke-dasharray:none;stroke-dashoffset:0;stroke-opacity:1;color-rendering:auto;image-rendering:auto;shape-rendering:auto;text-rendering:auto;enable-background:accumulate"/><path d="m -563.02794,749.44059 c -10.90519,0 -19.75,8.84505 -19.75,19.75005 0,5.4579 2.21752,10.39755 5.798,13.9728 l 27.92477,-27.92475 c -3.57517,-3.5805 -8.51487,-5.7981 -13.97277,-5.7981 z" id="path5823" style="color:#000000;clip-rule:nonzero;display:inline;overflow:visible;visibility:visible;opacity:1;isolation:auto;mix-blend-mode:normal;color-interpolation:sRGB;color-interpolation-filters:linearRGB;solid-color:#000000;solid-opacity:1;fill:#c41c6c;fill-opacity:1;fill-rule:nonzero;stroke:none;stroke-width:1.5;stroke-linecap:butt;stroke-linejoin:miter;stroke-miterlimit:4;stroke-dasharray:none;stroke-dashoffset:0;stroke-opacity:1;color-rendering:auto;image-rendering:auto;shape-rendering:auto;text-rendering:auto;enable-background:accumulate"/></g><g id="g4849" transform="matrix(0.93316658,0,0,0.93316658,0.86764277,68.728964)"><path d="m 13.501953,9 c -0.276131,0 -0.499973,0.2239 -0.5,0.5 l 0,6.5 -1.441406,0 c -0.127847,0 -0.250857,0.04902 -0.34375,0.136719 l -1.058594,1 c -0.2099494,0.1975 -0.2099494,0.531115 0,0.728515 l 1.058594,1 c 0.0932,0.087 0.216171,0.135366 0.34375,0.134766 l 1.441406,0 0,19.5 c 2.7e-5,0.2761 0.223869,0.5 0.5,0.5 l 4,0 c 0.01698,-4e-4 0.03393,0 0.05078,0 0.25464,-0.026 0.448519,-0.240094 0.449219,-0.496094 l 0,-19.5 2,0 0,0.494141 c -0.0096,0.6762 1.009563,0.6762 1,0 l 0,-0.994141 0,-2 0,-1.005859 c 0.0044,-0.2822 -0.225546,-0.512213 -0.507812,-0.507813 -0.276145,0 -0.496509,0.231713 -0.492188,0.507813 l 0,0.505859 -2,0 0,-6.4999998 c -2.8e-5,-0.2761 -0.22387,-0.5 -0.5,-0.5 z m 0.5,1 3,0 0,0.316406 -3,2.007813 z m 19.238281,0.322266 c -0.399237,-0.018 -0.782752,-0.0097 -1.148437,0.02734 -0.731371,0.065 -1.389092,0.212882 -1.949219,0.363282 l -2.609375,0.699218 c -0.266179,0.072 -0.424293,0.345028 -0.353515,0.611329 l 0.232421,0.873046 0.103516,0.388672 -0.775391,0.208985 -0.103515,-0.388672 -0.232422,-0.873047 c -0.0715,-0.2671 -0.346269,-0.425516 -0.613281,-0.353516 l -1.814454,0.486328 -1.667968,0.449219 c -0.266179,0.072 -0.424294,0.344928 -0.353516,0.611328 l 1.867188,6.976563 c 0.07153,0.2662 0.344949,0.424215 0.611328,0.353515 l 1.667968,-0.447265 1.814454,-0.488282 c 0.266179,-0.071 0.424292,-0.344928 0.353515,-0.611328 l -0.234375,-0.871093 -0.103515,-0.390625 0.77539,-0.208985 0.103516,0.390625 0.453125,1.69336 0.113281,0.421875 4.556641,17.037109 0.0078,0.0332 c 0.0035,0.011 0.0074,0.0222 0.01172,0.0332 0.0031,0.01 0.0063,0.01644 0.0098,0.02344 0.0042,0.01 0.0088,0.01834 0.01367,0.02734 l 0.0078,0.01562 c 0.0055,0.011 0.01135,0.0193 0.01758,0.0293 l 0.0078,0.01367 c 0.0085,0.013 0.01766,0.02511 0.02734,0.03711 0.005,0.01 0.01026,0.01253 0.01563,0.01953 0.0051,0.01 0.01029,0.01062 0.01563,0.01563 0.0057,0.01 0.0116,0.01062 0.01758,0.01563 0.0064,0.01 0.01287,0.01158 0.01953,0.01758 l 0.0059,0.01172 c 0.0089,0.01 0.01798,0.01353 0.02734,0.01953 0.01206,0.01 0.02444,0.01644 0.03711,0.02344 l 0.0098,0.0098 c 0.0083,0 0.0168,0.0097 0.02539,0.01367 l 0.01367,0.0098 c 0.0051,0 0.01035,0.0098 0.01563,0.0098 0.01028,0 0.02071,0.0097 0.03125,0.01172 l 0.01563,0 c 0.01607,0 0.03237,0.0097 0.04883,0.01172 0.01095,0 0.02203,0.0098 0.0332,0.0098 l 0.0039,0 c 0.01562,7e-4 0.03126,7e-4 0.04687,0 l 0.0039,0 c 0.03345,10e-5 0.06682,2.35e-4 0.09961,-0.0098 0.01052,0 0.02094,-0.0098 0.03125,-0.0098 l 0.01758,-0.0098 3.40039,-0.912109 -0.06641,0 c 0.328247,-5e-4 0.567007,-0.311806 0.482422,-0.628906 l -4.65625,-17.410156 c -0.0023,-0.011 -0.0049,-0.02125 -0.0078,-0.03125 l -0.117187,-0.439453 c -0.253771,-0.949 0.294411,-1.898344 1.240234,-2.152344 l 4.785156,-1.285156 C 39.985686,14.708687 40.120168,14.2797 39.884766,14 c -1.825047,-2.1638 -3.70015,-3.167484 -5.404297,-3.521484 -0.426037,-0.088 -0.840997,-0.13805 -1.240235,-0.15625 z m -0.04492,0.998046 0,0.002 c 0.350263,0.016 0.711084,0.06002 1.082032,0.136718 1.295871,0.2692 2.731668,1.101441 4.208984,2.619141 l -3.898437,1.044922 c -1.450685,0.3896 -2.318963,1.880884 -1.955079,3.333984 l -0.0039,0 -2.513672,0.673828 -0.33789,-1.261718 -0.234375,-0.871094 c -0.07153,-0.2661 -0.344949,-0.424216 -0.611328,-0.353516 l -1.742188,0.466797 c -0.266179,0.072 -0.424294,0.344928 -0.353515,0.611328 l 0.234374,0.875 0.103516,0.388672 -1.332031,0.357422 -1.183594,0.316406 -1.607422,-6.007812 1.185547,-0.320313 1.330078,-0.355469 0.103516,0.388672 0.234375,0.871094 c 0.0715,0.2672 0.346269,0.425616 0.613281,0.353516 l 1.740234,-0.466797 c 0.267155,-0.072 0.425541,-0.346281 0.353516,-0.613281 l -0.234375,-0.869141 -0.103515,-0.392578 2.128906,-0.570313 c 0.52784,-0.1418 1.126026,-0.275984 1.777344,-0.333984 0.325659,-0.029 0.665362,-0.04044 1.015624,-0.02344 z m -16.193359,0.199219 0,2.796875 L 14.488281,16 l -0.486328,0 0,-2.472656 z m 0,3.998047 0,0.482422 -0.71875,0 z M 11.759766,17 l 8.242187,0 0,1 -8.242187,0 -0.529297,-0.5 z m 2.242187,2 1.978516,0 -1.978516,1.324219 z m 18.884766,0.423828 4.408203,16.47461 -2.515625,0.675781 -4.40625,-16.47461 z m -15.884766,0.0957 0,2.796875 -3,2.007813 0,-2.796875 z m 0,4 0,2.796875 -3,2.007813 0,-2.796875 z m 0,4 0,2.796875 -3,2.007813 0,-2.796875 z m 0,4 0,2.796875 -3,2.007813 0,-2.796875 z m 0,4 0,2.480469 -3,0 0,-0.472656 z" id="path5444-3" style="color:#000000;font-style:normal;font-variant:normal;font-weight:normal;font-stretch:normal;font-size:medium;line-height:normal;font-family:sans-serif;text-indent:0;text-align:start;text-decoration:none;text-decoration-line:none;text-decoration-style:solid;text-decoration-color:#000000;letter-spacing:normal;word-spacing:normal;text-transform:none;direction:ltr;block-progression:tb;writing-mode:lr-tb;baseline-shift:baseline;text-anchor:start;white-space:normal;clip-rule:nonzero;display:inline;overflow:visible;visibility:visible;opacity:1;isolation:auto;mix-blend-mode:normal;color-interpolation:sRGB;color-interpolation-filters:linearRGB;solid-color:#000000;solid-opacity:1;fill:#ffffff;fill-opacity:1;fill-rule:nonzero;stroke:none;stroke-width:1;stroke-linecap:round;stroke-linejoin:round;stroke-miterlimit:4;stroke-dasharray:none;stroke-dashoffset:0;stroke-opacity:1;color-rendering:auto;image-rendering:auto;shape-rendering:auto;text-rendering:auto;enable-background:accumulate" transform="translate(0,1004.3622)"/></g></g></g></svg>